<svg width="1096" height="346" viewBox="0 0 1096 346" fill="none" xmlns="http://www.w3.org/2000/svg">
<rect width="862.24" height="346" rx="20" fill="#F94144" fill-opacity="0.8"/>
<rect x="56.9263" width="862.24" height="346" rx="20" fill="#F9844A" fill-opacity="0.8"/>
<rect x="113.852" width="862.24" height="346" rx="20" fill="#F9C74F" fill-opacity="0.8"/>
<rect x="170.778" width="862.24" height="346" rx="20" fill="#43AA8B" fill-opacity="0.8"/>
<rect x="227.705" width="862.24" height="346" rx="20" fill="#0077B6"/>
<rect y="78.7643" width="759.934" height="199.724" fill="#343A40"/>
<path d="M100.38 257.921C89.18 257.921 78.75 256.171 69.09 252.671C59.43 249.031 50.96 243.851 43.68 237.131C36.54 230.411 30.94 222.431 26.88 213.191C22.82 203.811 20.79 193.521 20.79 182.321C20.79 171.681 22.89 161.811 27.09 152.711C31.43 143.611 37.24 135.701 44.52 128.981C51.94 122.121 60.48 116.871 70.14 113.231C79.8 109.451 90.09 107.561 101.01 107.561C109.69 107.561 118.02 108.751 126 111.131C133.98 113.511 141.19 116.591 147.63 120.371C154.21 124.011 159.53 128.001 163.59 132.341L149.52 150.401C144.76 146.201 139.79 142.631 134.61 139.691C129.57 136.611 124.11 134.231 118.23 132.551C112.49 130.871 106.33 130.031 99.75 130.031C92.47 130.031 85.47 131.291 78.75 133.811C72.17 136.191 66.22 139.691 60.9 144.311C55.72 148.931 51.59 154.461 48.51 160.901C45.43 167.341 43.89 174.481 43.89 182.321C43.89 190.861 45.43 198.421 48.51 205.001C51.73 211.581 56.07 217.181 61.53 221.801C66.99 226.281 73.22 229.711 80.22 232.091C87.36 234.471 94.92 235.661 102.9 235.661C109.9 235.661 116.27 234.751 122.01 232.931C127.89 230.971 133.21 228.591 137.97 225.791C142.73 222.851 147 219.771 150.78 216.551L161.91 235.241C158.27 238.741 153.23 242.241 146.79 245.741C140.49 249.241 133.35 252.181 125.37 254.561C117.39 256.801 109.06 257.921 100.38 257.921ZM197.415 255.821L263.775 108.821H289.185L355.125 255.821H330.345L286.665 159.221C285.825 157.121 284.775 154.601 283.515 151.661C282.255 148.581 280.925 145.431 279.525 142.211C278.265 138.991 277.005 135.771 275.745 132.551C274.625 129.331 273.645 126.461 272.805 123.941L278.895 123.731C277.775 126.671 276.585 129.751 275.325 132.971C274.205 136.191 273.015 139.411 271.755 142.631C270.495 145.711 269.235 148.721 267.975 151.661C266.715 154.601 265.525 157.401 264.405 160.061L220.935 255.821H197.415ZM226.395 220.541L235.215 198.701H315.015L320.895 220.541H226.395ZM457.336 257.921C447.676 257.921 438.786 256.871 430.666 254.771C422.546 252.671 415.126 249.521 408.406 245.321C401.826 241.121 395.806 235.801 390.346 229.361L405.046 210.881C413.306 220.401 421.566 227.261 429.826 231.461C438.226 235.521 447.746 237.551 458.386 237.551C464.966 237.551 471.126 236.711 476.866 235.031C482.746 233.211 487.506 230.691 491.146 227.471C494.926 224.111 496.816 219.981 496.816 215.081C496.816 211.861 495.906 209.131 494.086 206.891C492.266 204.651 489.816 202.761 486.736 201.221C483.656 199.681 480.156 198.421 476.236 197.441C472.456 196.321 468.536 195.411 464.476 194.711C460.556 194.011 456.846 193.381 453.346 192.821C444.666 191.561 436.826 189.811 429.826 187.571C422.966 185.191 417.156 182.251 412.396 178.751C407.636 175.251 403.996 171.051 401.476 166.151C398.956 161.251 397.696 155.651 397.696 149.351C397.696 142.911 399.166 137.031 402.106 131.711C405.186 126.391 409.456 121.911 414.916 118.271C420.376 114.491 426.746 111.621 434.026 109.661C441.306 107.701 449.216 106.721 457.756 106.721C466.716 106.721 474.906 107.701 482.326 109.661C489.886 111.621 496.536 114.561 502.276 118.481C508.156 122.261 513.056 126.951 516.976 132.551L501.436 148.931C497.936 144.171 493.876 140.181 489.256 136.961C484.776 133.741 479.806 131.291 474.346 129.611C468.886 127.931 463.146 127.091 457.126 127.091C450.266 127.091 444.176 127.931 438.856 129.611C433.536 131.291 429.336 133.671 426.256 136.751C423.176 139.691 421.636 143.261 421.636 147.461C421.636 150.961 422.546 154.041 424.366 156.701C426.186 159.221 428.776 161.391 432.136 163.211C435.496 165.031 439.626 166.571 444.526 167.831C449.426 169.091 455.026 170.141 461.326 170.981C469.446 172.241 477.076 173.851 484.216 175.811C491.496 177.631 497.866 180.081 503.326 183.161C508.786 186.101 513.056 189.881 516.136 194.501C519.216 198.981 520.756 204.511 520.756 211.091C520.756 220.611 518.166 228.871 512.986 235.871C507.806 242.871 500.456 248.331 490.936 252.251C481.416 256.031 470.216 257.921 457.336 257.921ZM688.807 255.821V108.821H711.487V255.821H688.807ZM574.147 255.821V108.821H596.827V255.821H574.147ZM584.017 194.081V172.241H698.887V194.081H584.017ZM775.328 255.821V108.821H798.008V233.981H885.578V255.821H775.328ZM964.312 255.821V187.361L967.462 201.431L895.642 108.821H925.672L978.592 179.801L973.552 179.381L1024.16 108.821H1051.46L985.102 198.701L986.992 185.681V255.821H964.312Z" fill="#EDF6F9"/>
</svg>
