<svg width="600" height="600" viewBox="0 0 600 600" fill="none" xmlns="http://www.w3.org/2000/svg">
<rect width="600" height="599.002" rx="30" fill="#F94144" fill-opacity="0.8"/>
<rect x="34.3511" width="565.649" height="599.002" rx="30" fill="#F9844A" fill-opacity="0.5"/>
<rect x="68.7024" width="531.298" height="599.002" rx="30" fill="#F9C74F" fill-opacity="0.7"/>
<rect x="103.053" y="0.998291" width="496.947" height="599.002" rx="30" fill="#43AA8B" fill-opacity="0.8"/>
<rect x="160.305" width="439.695" height="599.002" rx="30" fill="#0077B6"/>
<rect y="74.8752" width="450" height="449.251" fill="#343A40"/>
<path d="M239.582 476.289C213.695 476.289 189.587 472.158 167.259 463.896C144.931 455.303 125.353 443.075 108.526 427.212C92.0227 411.349 79.0788 392.511 69.6946 370.699C60.3103 348.557 55.6182 324.266 55.6182 297.828C55.6182 272.711 60.4721 249.412 70.18 227.93C80.2114 206.449 93.6406 187.777 110.468 171.913C127.618 155.72 147.357 143.327 169.686 134.734C192.014 125.811 215.798 121.349 241.038 121.349C261.101 121.349 280.355 124.158 298.8 129.777C317.245 135.395 333.91 142.666 348.796 151.589C364.005 160.181 376.301 169.6 385.686 179.845L353.164 222.477C342.162 212.563 330.674 204.136 318.701 197.195C307.052 189.925 294.432 184.307 280.841 180.341C267.573 176.375 253.335 174.392 238.126 174.392C221.299 174.392 205.119 177.366 189.587 183.315C174.378 188.933 160.625 197.195 148.328 208.101C136.355 219.007 126.809 232.061 119.69 247.264C112.571 262.466 109.011 279.321 109.011 297.828C109.011 317.987 112.571 335.833 119.69 351.366C127.133 366.899 137.164 380.118 149.784 391.024C162.405 401.6 176.805 409.696 192.984 415.315C209.488 420.933 226.962 423.742 245.407 423.742C261.587 423.742 276.31 421.594 289.578 417.298C303.169 412.671 315.465 407.053 326.468 400.443C337.47 393.503 347.34 386.232 356.077 378.631L381.802 422.751C373.389 431.013 361.74 439.275 346.854 447.537C332.292 455.799 315.789 462.739 297.344 468.357C278.899 473.645 259.645 476.289 239.582 476.289Z" fill="#EDF6F9"/>
</svg>
